<?xml version="1.0" encoding="utf-8"?>
<!-- Generator: Adobe Illustrator 22.1.0, SVG Export Plug-In . SVG Version: 6.00 Build 0)  -->
<svg version="1.1" id="Capa_1" xmlns="http://www.w3.org/2000/svg" xmlns:xlink="http://www.w3.org/1999/xlink" x="0px" y="0px"
	 viewBox="0 0 16 16" style="enable-background:new 0 0 16 16;" xml:space="preserve">
<style type="text/css">
	.st0{fill:#020203;}
	.st1{fill:#302D7E;}
	.st2{fill:#009741;}
	.st3{fill:#E20D18;}
</style>
<g>
	<g>
		<g>
			<circle class="st0" cx="7.8" cy="6.8" r="1.2"/>
			<circle class="st0" cx="4.3" cy="6.6" r="0.9"/>
			<circle class="st0" cx="1.9" cy="8.4" r="0.8"/>
			<circle class="st0" cx="0.5" cy="10.7" r="0.5"/>
			<circle class="st0" cx="0.5" cy="12.9" r="0.4"/>
			<circle class="st0" cx="1.1" cy="14.3" r="0.3"/>
		</g>
	</g>
	<g>
		<circle class="st1" cx="11.3" cy="7.5" r="1.2"/>
		<circle class="st1" cx="10.8" cy="4.1" r="0.9"/>
		<circle class="st1" cx="8.5" cy="2" r="0.8"/>
		<circle class="st1" cx="5.9" cy="1.2" r="0.5"/>
		<circle class="st1" cx="3.8" cy="1.7" r="0.4"/>
		<circle class="st1" cx="2.6" cy="2.5" r="0.3"/>
	</g>
	<g>
		<circle class="st2" cx="9.1" cy="10.5" r="1.2"/>
		<circle class="st2" cx="12.5" cy="10" r="0.9"/>
		<circle class="st2" cx="14.6" cy="7.8" r="0.8"/>
		<circle class="st2" cx="15.5" cy="5.2" r="0.5"/>
		<circle class="st2" cx="15" cy="3.1" r="0.4"/>
		<circle class="st2" cx="14.2" cy="1.8" r="0.3"/>
	</g>
	<g>
		<g>
			<circle class="st3" cx="5.5" cy="10.2" r="1.2"/>
			<circle class="st3" cx="7.1" cy="13.3" r="0.9"/>
			<circle class="st3" cx="9.9" cy="14.6" r="0.8"/>
			<circle class="st3" cx="12.6" cy="14.5" r="0.5"/>
			<circle class="st3" cx="14.4" cy="13.5" r="0.4"/>
			<circle class="st3" cx="15.4" cy="12.3" r="0.3"/>
		</g>
	</g>
</g>
</svg>
