<?xml version="1.0" encoding="utf-8"?>
<!-- Generator: Adobe Illustrator 22.0.0, SVG Export Plug-In . SVG Version: 6.00 Build 0)  -->
<svg version="1.1" id="Capa_1" xmlns="http://www.w3.org/2000/svg" xmlns:xlink="http://www.w3.org/1999/xlink" x="0px" y="0px"
	 viewBox="0 0 500 170.6" style="enable-background:new 0 0 500 170.6;" xml:space="preserve">
<style type="text/css">
	.st0{fill:#020203;}
	.st1{fill:#302D7E;}
	.st2{fill:#009741;}
	.st3{fill:#E20D18;}
</style>
<g>
	<g>
		<g>
			<circle class="st0" cx="111.7" cy="74.8" r="10.8"/>
			<circle class="st0" cx="80.2" cy="72.5" r="8.2"/>
			<circle class="st0" cx="58" cy="88.9" r="6.8"/>
			<circle class="st0" cx="45.9" cy="110.3" r="4.9"/>
			<circle class="st0" cx="45.9" cy="129.7" r="4"/>
			<circle class="st0" cx="51" cy="142.3" r="2.8"/>
		</g>
	</g>
	<g>
		<circle class="st1" cx="142.8" cy="81.2" r="10.8"/>
		<circle class="st1" cx="138.4" cy="49.9" r="8.2"/>
		<circle class="st1" cx="117.8" cy="31.6" r="6.8"/>
		<circle class="st1" cx="94.3" cy="24.2" r="4.9"/>
		<circle class="st1" cx="75.3" cy="28.3" r="4"/>
		<circle class="st1" cx="64.1" cy="36.1" r="2.8"/>
	</g>
	<g>
		<circle class="st2" cx="123" cy="108" r="10.8"/>
		<circle class="st2" cx="154.3" cy="104" r="8.2"/>
		<circle class="st2" cx="172.9" cy="83.5" r="6.8"/>
		<circle class="st2" cx="180.6" cy="60.1" r="4.9"/>
		<circle class="st2" cx="176.7" cy="41.2" r="4"/>
		<circle class="st2" cx="169" cy="29.8" r="2.8"/>
	</g>
	<g>
		<g>
			<circle class="st3" cx="91" cy="105.4" r="10.8"/>
			<circle class="st3" cx="104.7" cy="133.7" r="8.2"/>
			<circle class="st3" cx="130" cy="144.9" r="6.8"/>
			<circle class="st3" cx="154.7" cy="144.6" r="4.9"/>
			<circle class="st3" cx="171.5" cy="134.9" r="4"/>
			<circle class="st3" cx="179.7" cy="124.1" r="2.8"/>
		</g>
	</g>
	<g>
		<path class="st0" d="M247.7,115.4l-3.3,2.4c-1.7-2.4-4-4.2-6.5-5.4c-2.6-1.2-5.2-1.7-8.4-1.7c-3.3,0-6.5,0.9-9.3,2.4
			c-2.8,1.6-5.1,3.7-6.6,6.5c-1.6,2.6-2.3,5.8-2.3,9.1c0,5.1,1.7,9.3,5.2,12.8c3.5,3.3,7.9,5.1,13.1,5.1c5.8,0,10.7-2.3,14.7-6.8
			l3.3,2.4c-2.1,2.6-4.7,4.7-7.7,6.1c-3.1,1.4-6.6,2.1-10.5,2.1c-7.3,0-13.1-2.4-17.3-7.3c-3.5-4-5.2-9.1-5.2-14.9
			c0-6.1,2.1-11.2,6.5-15.4c4.2-4.2,9.6-6.3,16.1-6.3c3.8,0,7.3,0.7,10.5,2.3C243.2,110.5,245.8,112.6,247.7,115.4z"/>
		<path class="st0" d="M265,107.7h24v4h-19.8v13.1h19.6v4h-19.6v16.4h19.6v4H265L265,107.7L265,107.7z"/>
		<path class="st0" d="M305.1,149.3v-41.6h0.9l27.8,32v-32h4v41.6h-0.9l-27.5-31.5v31.5H305.1z"/>
		<path class="st0" d="M352.7,111.7v-4h22.9v4h-9.3v37.6h-4.4v-37.6H352.7z"/>
		<path class="st0" d="M390.4,107.7h24v4h-19.8v13.1h19.6v4h-19.6v16.4h19.6v4h-23.8L390.4,107.7L390.4,107.7z"/>
		<path class="st0" d="M430.7,107.7h8.2c4.5,0,7.7,0.2,9.4,0.5c2.4,0.5,4.5,1.7,6.1,3.7c1.6,1.9,2.3,4.2,2.3,6.8
			c0,2.3-0.5,4.2-1.6,5.9c-1,1.7-2.6,3-4.5,3.8c-1.9,0.9-4.7,1.4-8.2,1.4l15,19.4h-5.1l-15.2-19.4h-2.3v19.4h-4.2V107.7z
			 M434.7,111.7v14.2h7.2c2.8,0,4.9-0.3,6.1-0.9c1.4-0.5,2.4-1.4,3.1-2.4c0.7-1.2,1-2.4,1-3.8s-0.3-2.6-1-3.8
			c-0.7-1.2-1.7-1.9-3-2.4c-1.2-0.5-3.3-0.7-6.1-0.7C442,111.7,434.7,111.7,434.7,111.7z"/>
	</g>
	<polygon class="st2" points="371.7,38.6 371.7,19.9 311.2,19.9 295.6,19.9 292.5,19.9 292.5,95.8 295.6,95.8 311.2,95.8 
		371.7,95.8 371.7,77 311.2,77 311.2,67.3 371.7,67.3 371.7,48.4 311.2,48.4 311.2,38.6 	"/>
	<polygon class="st3" points="286.6,76.4 226.7,76.4 226.7,19.9 207.9,19.9 207.9,95.1 226.7,95.1 286.6,95.1 	"/>
	<path class="st1" d="M453.9,38.6C447.3,27.4,435,19.9,421,19.9h-25.9h-15.6h-3.1v21h-63.3v5.6h63.3v23.1h-63.3v5.6h63.3v21h3.1
		h15.6H421c14,0,26.2-7.5,32.7-18.7c3.3-5.6,5.2-12.2,5.2-19.2S457.3,44.2,453.9,38.6z M420.5,77h-4.9h-20.5V38.6h20.5h4.9
		c9.6,1.2,17,9.4,17,19.2C437.5,67.8,430.1,75.8,420.5,77z"/>
</g>
</svg>
