<?xml version="1.0" encoding="utf-8"?>
<!-- Generator: Adobe Illustrator 22.1.0, SVG Export Plug-In . SVG Version: 6.00 Build 0)  -->
<svg version="1.1" id="Capa_1" xmlns="http://www.w3.org/2000/svg" xmlns:xlink="http://www.w3.org/1999/xlink" x="0px" y="0px"
	 viewBox="0 0 248 84.6" style="enable-background:new 0 0 248 84.6;" xml:space="preserve">
<style type="text/css">
	.st0{fill:#020203;}
	.st1{fill:#302D7E;}
	.st2{fill:#009741;}
	.st3{fill:#E20D18;}
</style>
<g>
	<g>
		<g>
			<circle class="st0" cx="44.9" cy="36.4" r="6.2"/>
			<circle class="st0" cx="26.9" cy="35.1" r="4.7"/>
			<circle class="st0" cx="14.2" cy="44.5" r="3.9"/>
			<circle class="st0" cx="7.3" cy="56.7" r="2.8"/>
			<circle class="st0" cx="7.3" cy="67.8" r="2.3"/>
			<circle class="st0" cx="10.2" cy="75" r="1.6"/>
		</g>
	</g>
	<g>
		<circle class="st1" cx="62.7" cy="40.1" r="6.2"/>
		<circle class="st1" cx="60.2" cy="22.2" r="4.7"/>
		<circle class="st1" cx="48.4" cy="11.7" r="3.9"/>
		<circle class="st1" cx="35" cy="7.5" r="2.8"/>
		<circle class="st1" cx="24.1" cy="9.8" r="2.3"/>
		<circle class="st1" cx="17.7" cy="14.3" r="1.6"/>
	</g>
	<g>
		<circle class="st2" cx="51.4" cy="55.4" r="6.2"/>
		<circle class="st2" cx="69.3" cy="53.1" r="4.7"/>
		<circle class="st2" cx="79.9" cy="41.4" r="3.9"/>
		<circle class="st2" cx="84.3" cy="28" r="2.8"/>
		<circle class="st2" cx="82.1" cy="17.2" r="2.3"/>
		<circle class="st2" cx="77.7" cy="10.7" r="1.6"/>
	</g>
	<g>
		<g>
			<circle class="st3" cx="33.1" cy="53.9" r="6.2"/>
			<circle class="st3" cx="40.9" cy="70.1" r="4.7"/>
			<circle class="st3" cx="55.4" cy="76.5" r="3.9"/>
			<circle class="st3" cx="69.5" cy="76.3" r="2.8"/>
			<circle class="st3" cx="79.1" cy="70.8" r="2.3"/>
			<circle class="st3" cx="83.8" cy="64.6" r="1.6"/>
		</g>
	</g>
	<g>
		<path class="st0" d="M122.7,59.6l-1.9,1.4c-1-1.4-2.3-2.4-3.7-3.1c-1.5-0.7-3-1-4.8-1c-1.9,0-3.7,0.5-5.3,1.4
			c-1.6,0.9-2.9,2.1-3.8,3.7c-0.9,1.5-1.3,3.3-1.3,5.2c0,2.9,1,5.3,3,7.3c2,1.9,4.5,2.9,7.5,2.9c3.3,0,6.1-1.3,8.4-3.9l1.9,1.4
			c-1.2,1.5-2.7,2.7-4.4,3.5c-1.8,0.8-3.8,1.2-6,1.2c-4.2,0-7.5-1.4-9.9-4.2c-2-2.3-3-5.2-3-8.5c0-3.5,1.2-6.4,3.7-8.8
			c2.4-2.4,5.5-3.6,9.2-3.6c2.2,0,4.2,0.4,6,1.3C120.1,56.8,121.6,58,122.7,59.6z"/>
		<path class="st0" d="M132.6,55.2h13.7v2.3H135V65h11.2v2.3H135v9.4h11.2V79h-13.6V55.2z"/>
		<path class="st0" d="M155.5,79V55.2h0.5l15.9,18.3V55.2h2.3V79h-0.5l-15.7-18v18H155.5z"/>
		<path class="st0" d="M182.7,57.5v-2.3h13.1v2.3h-5.3V79H188V57.5H182.7z"/>
		<path class="st0" d="M204.3,55.2h13.7v2.3h-11.3V65h11.2v2.3h-11.2v9.4h11.2V79h-13.6V55.2z"/>
		<path class="st0" d="M227.3,55.2h4.7c2.6,0,4.4,0.1,5.4,0.3c1.4,0.3,2.6,1,3.5,2.1c0.9,1.1,1.3,2.4,1.3,3.9c0,1.3-0.3,2.4-0.9,3.4
			c-0.6,1-1.5,1.7-2.6,2.2c-1.1,0.5-2.7,0.8-4.7,0.8l8.6,11.1h-2.9L231,67.9h-1.3V79h-2.4V55.2z M229.6,57.5v8.1l4.1,0
			c1.6,0,2.8-0.2,3.5-0.5c0.8-0.3,1.4-0.8,1.8-1.4c0.4-0.7,0.6-1.4,0.6-2.2c0-0.8-0.2-1.5-0.6-2.2c-0.4-0.7-1-1.1-1.7-1.4
			c-0.7-0.3-1.9-0.4-3.5-0.4H229.6z"/>
	</g>
	<polygon class="st2" points="193.6,15.7 193.6,5 159,5 150.1,5 148.3,5 148.3,48.4 150.1,48.4 159,48.4 193.6,48.4 193.6,37.7 
		159,37.7 159,32.1 193.6,32.1 193.6,21.3 159,21.3 159,15.7 	"/>
	<polygon class="st3" points="144.9,37.3 110.7,37.3 110.7,5 99.9,5 99.9,48 110.7,48 144.9,48 	"/>
	<path class="st1" d="M240.6,15.7C236.8,9.3,229.8,5,221.8,5H207h-8.9h-1.8v12h-36.2v3.2h36.2v13.2h-36.2v3.2h36.2v12h1.8h8.9h14.8
		c8,0,15-4.3,18.7-10.7c1.9-3.2,3-7,3-11S242.5,18.9,240.6,15.7z M221.5,37.7h-2.8H207v-22h11.7h2.8c5.5,0.7,9.7,5.4,9.7,11
		C231.2,32.4,227,37,221.5,37.7z"/>
</g>
</svg>
