<?xml version="1.0" encoding="utf-8"?>
<!-- Generator: Adobe Illustrator 22.1.0, SVG Export Plug-In . SVG Version: 6.00 Build 0)  -->
<svg version="1.1" id="Capa_1" xmlns="http://www.w3.org/2000/svg" xmlns:xlink="http://www.w3.org/1999/xlink" x="0px" y="0px"
	 viewBox="0 0 127.6 99.2" style="enable-background:new 0 0 127.6 99.2;" xml:space="preserve">
<style type="text/css">
	.st0{fill:#FFFFFF;}
</style>
<g>
	<g>
		<path class="st0" d="M-52.6,61.6c-1.7,0.3-2.9,1.9-2.9,3.7V80c0,9-7.3,16.2-16.2,16.2h-79.5c-9,0-16.2-7.3-16.2-16.2V64.8
			c0-2-1.5-3.8-3.5-3.9c-2.1,0-3.8,1.7-3.8,3.7V80c0,13,10.5,23.5,23.5,23.5h79.5c13,0,23.5-10.5,23.5-23.5V65.2
			C-48.3,63-50.3,61.2-52.6,61.6z"/>
		<path class="st0" d="M-91,46.6l-16.8,16.8V10.6c0-2-1.6-3.6-3.6-3.6s-3.6,1.6-3.6,3.6v52.9l-17-16.9c-0.7-0.7-1.7-1.1-2.5-1.1
			c-1,0-1.8,0.3-2.5,1.1c-1.4,1.4-1.4,3.7,0,5.1l23,23c0.7,0.7,1.6,1.1,2.5,1.1c1,0,1.9-0.4,2.5-1.1l23-23c1.4-1.4,1.4-3.7,0-5.1
			C-87.3,45.2-89.6,45.2-91,46.6z"/>
	</g>
</g>
<g>
	<path class="st0" d="M-268.9,123.8l-1.4-1.1c-3.1-2.4-8.2-2.4-11.3,0l-48,37l-48-37c-3.1-2.4-8.2-2.4-11.3,0l-1.4,1.1
		c-3.1,2.4-3.1,6.3,0,8.8l60.7,46.9l60.7-46.9C-265.7,130.1-265.7,126.2-268.9,123.8z"/>
	<g>
		<path class="st0" d="M-272.5,201.3h-114.1c-3.3,0-6-2.9-6-6.5v0c0-3.6,2.7-6.5,6-6.5h114.1c3.3,0,6,2.9,6,6.5v0
			C-266.5,198.4-269.2,201.3-272.5,201.3z"/>
	</g>
</g>
<g>
	<path class="st0" d="M73.5,69.4c3.4,3.4,5.3,3.5,8.8,0l25.7-26.7c2.4-4.1,0.4-7.5-4.4-7.5H92V9.5c0-3.2-2.5-5.7-5.6-5.7H69.4
		c-3.1,0-5.6,2.6-5.6,5.7v25.8H52.3c-4.8,0-6.8,3.4-4.4,7.5L73.5,69.4z M117.4,81.1H38.4c-3.1,0-5.6,2.6-5.6,5.7v2.9
		c0,3.2,2.5,5.7,5.6,5.7h79.1c3.1,0,5.6-2.6,5.6-5.7v-2.9C123.1,83.7,120.6,81.1,117.4,81.1L117.4,81.1z M117.4,81.1"/>
</g>
</svg>
